REM DIRINDEX 1\8,1\2\11,1\3\12,1\3\14,1\5\15,1\5\16,1\6\17,1\6\18,1\4\19,1\4\20,1\4\21,1\4\22,1\7\23,1\7\24,1\7\25,1\2\9\26,1\2\9\27,1\2\10\28,1\2\10\29,1\2\10\30,1\2\10\31,1\2\10\32,1\3\13\33,1\3\13\34,1\3\13\35
REM DIRNAME cjc123,folder01,folder02,folder03,folder04,folder05,folder06,folder07,folder08,folder09,folder10,folder11,folder12,folder13,folder14,folder15,folder16,folder17,folder18,folder19,folder20,folder21,folder22,folder23,folder24,folder25,folder26,folder27,folder28,folder29,folder30,folder31,folder32,folder33,folder34
TITLE ""
FILE "86 086_UNIT2_SET5.mp3" MP3
  TRACK 01 AUDIO
    TITLE "14:cjc123_7687"
    INDEX 01 00:00:00
  TRACK 02 AUDIO
    TITLE "0:"
    INDEX 01 00:02:53
  TRACK 03 AUDIO
    TITLE "33:cjc123_7688"
    INDEX 01 00:03:35
  TRACK 04 AUDIO
    TITLE "0:"
    INDEX 01 00:04:56
  TRACK 05 AUDIO
    TITLE "34:cjc123_7689"
    INDEX 01 00:05:05
  TRACK 06 AUDIO
    TITLE "0:"
    INDEX 01 00:06:18
  TRACK 07 AUDIO
    TITLE "35:cjc123_7690"
    INDEX 01 00:06:59
  TRACK 08 AUDIO
    TITLE "0:"
    INDEX 01 00:11:29
  TRACK 09 AUDIO
    TITLE "33:cjc123_7691"
    INDEX 01 00:12:16
  TRACK 10 AUDIO
    TITLE "0:"
    INDEX 01 00:13:20
  TRACK 11 AUDIO
    TITLE "34:cjc123_7692"
    INDEX 01 00:13:35
  TRACK 12 AUDIO
    TITLE "0:"
    INDEX 01 00:14:39
  TRACK 13 AUDIO
    TITLE "35:cjc123_7693"
    INDEX 01 00:15:09
  TRACK 14 AUDIO
    TITLE "0:"
    INDEX 01 00:19:01
  TRACK 15 AUDIO
    TITLE "33:cjc123_7694"
    INDEX 01 00:19:65
  TRACK 16 AUDIO
    TITLE "0:"
    INDEX 01 00:21:09
  TRACK 17 AUDIO
    TITLE "34:cjc123_7695"
    INDEX 01 00:21:25
  TRACK 18 AUDIO
    TITLE "0:"
    INDEX 01 00:22:34
  TRACK 19 AUDIO
    TITLE "35:cjc123_7696"
    INDEX 01 00:23:10
  TRACK 20 AUDIO
    TITLE "0:"
    INDEX 01 00:26:09
  TRACK 21 AUDIO
    TITLE "33:cjc123_7697"
    INDEX 01 00:26:64
  TRACK 22 AUDIO
    TITLE "0:"
    INDEX 01 00:27:59
  TRACK 23 AUDIO
    TITLE "34:cjc123_7698"
    INDEX 01 00:27:67
  TRACK 24 AUDIO
    TITLE "0:"
    INDEX 01 00:28:57
  TRACK 25 AUDIO
    TITLE "35:cjc123_7699"
    INDEX 01 00:29:33
  TRACK 26 AUDIO
    TITLE "0:"
    INDEX 01 00:32:58
  TRACK 27 AUDIO
    TITLE "33:cjc123_7700"
    INDEX 01 00:33:32
  TRACK 28 AUDIO
    TITLE "0:"
    INDEX 01 00:34:53
  TRACK 29 AUDIO
    TITLE "34:cjc123_7701"
    INDEX 01 00:34:73
  TRACK 30 AUDIO
    TITLE "0:"
    INDEX 01 00:36:17
  TRACK 31 AUDIO
    TITLE "35:cjc123_7702"
    INDEX 01 00:36:68
  TRACK 32 AUDIO
    TITLE "0:"
    INDEX 01 00:41:34
  TRACK 33 AUDIO
    TITLE "33:cjc123_7703"
    INDEX 01 00:42:18
  TRACK 34 AUDIO
    TITLE "0:"
    INDEX 01 00:43:23
  TRACK 35 AUDIO
    TITLE "34:cjc123_7704"
    INDEX 01 00:43:40
  TRACK 36 AUDIO
    TITLE "0:"
    INDEX 01 00:44:40
  TRACK 37 AUDIO
    TITLE "35:cjc123_7705"
    INDEX 01 00:45:18
  TRACK 38 AUDIO
    TITLE "0:"
    INDEX 01 00:48:51
  TRACK 39 AUDIO
    TITLE "33:cjc123_7706"
    INDEX 01 00:49:31
  TRACK 40 AUDIO
    TITLE "0:"
    INDEX 01 00:50:35
  TRACK 41 AUDIO
    TITLE "34:cjc123_7707"
    INDEX 01 00:51:03
  TRACK 42 AUDIO
    TITLE "0:"
    INDEX 01 00:52:12
  TRACK 43 AUDIO
    TITLE "35:cjc123_7708"
    INDEX 01 00:52:61
  TRACK 44 AUDIO
    TITLE "0:"
    INDEX 01 00:56:63
  TRACK 45 AUDIO
    TITLE "33:cjc123_7709"
    INDEX 01 00:57:41
  TRACK 46 AUDIO
    TITLE "0:"
    INDEX 01 00:58:40
  TRACK 47 AUDIO
    TITLE "34:cjc123_7710"
    INDEX 01 00:58:60
  TRACK 48 AUDIO
    TITLE "0:"
    INDEX 01 00:59:63
  TRACK 49 AUDIO
    TITLE "35:cjc123_7711"
    INDEX 01 01:00:35
  TRACK 50 AUDIO
    TITLE "0:"
    INDEX 01 01:04:15
  TRACK 51 AUDIO
    TITLE "33:cjc123_7712"
    INDEX 01 01:04:64
  TRACK 52 AUDIO
    TITLE "0:"
    INDEX 01 01:06:00
  TRACK 53 AUDIO
    TITLE "34:cjc123_7713"
    INDEX 01 01:06:16
  TRACK 54 AUDIO
    TITLE "0:"
    INDEX 01 01:07:23
  TRACK 55 AUDIO
    TITLE "35:cjc123_7714"
    INDEX 01 01:07:70
  TRACK 56 AUDIO
    TITLE "0:"
    INDEX 01 01:11:72
  TRACK 57 AUDIO
    TITLE "33:cjc123_7715"
    INDEX 01 01:12:44
  TRACK 58 AUDIO
    TITLE "0:"
    INDEX 01 01:13:32
  TRACK 59 AUDIO
    TITLE "34:cjc123_7716"
    INDEX 01 01:14:04
  TRACK 60 AUDIO
    TITLE "0:"
    INDEX 01 01:15:11
  TRACK 61 AUDIO
    TITLE "35:cjc123_7717"
    INDEX 01 01:15:64
  TRACK 62 AUDIO
    TITLE "0:"
    INDEX 01 01:19:15
  TRACK 63 AUDIO
    TITLE "33:cjc123_7718"
    INDEX 01 01:20:02
  TRACK 64 AUDIO
    TITLE "0:"
    INDEX 01 01:21:10
  TRACK 65 AUDIO
    TITLE "34:cjc123_7719"
    INDEX 01 01:21:23
  TRACK 66 AUDIO
    TITLE "0:"
    INDEX 01 01:22:31
  TRACK 67 AUDIO
    TITLE "35:cjc123_7720"
    INDEX 01 01:23:03
  TRACK 68 AUDIO
    TITLE "0:"
    INDEX 01 01:26:56
  TRACK 69 AUDIO
    TITLE "33:cjc123_7721"
    INDEX 01 01:27:34
  TRACK 70 AUDIO
    TITLE "0:"
    INDEX 01 01:28:37
  TRACK 71 AUDIO
    TITLE "34:cjc123_7722"
    INDEX 01 01:28:72
  TRACK 72 AUDIO
    TITLE "0:"
    INDEX 01 01:30:11
  TRACK 73 AUDIO
    TITLE "35:cjc123_7723"
    INDEX 01 01:30:62
  TRACK 74 AUDIO
    TITLE "0:"
    INDEX 01 01:33:68
  TRACK 75 AUDIO
    TITLE "33:cjc123_7724"
    INDEX 01 01:34:42
  TRACK 76 AUDIO
    TITLE "0:"
    INDEX 01 01:35:39
  TRACK 77 AUDIO
    TITLE "34:cjc123_7725"
    INDEX 01 01:36:07
  TRACK 78 AUDIO
    TITLE "0:"
    INDEX 01 01:37:13
  TRACK 79 AUDIO
    TITLE "35:cjc123_7726"
    INDEX 01 01:37:64
  TRACK 80 AUDIO
    TITLE "0:"
    INDEX 01 01:42:39
  TRACK 81 AUDIO
    TITLE "33:cjc123_7727"
    INDEX 01 01:43:11
  TRACK 82 AUDIO
    TITLE "0:"
    INDEX 01 01:44:09
  TRACK 83 AUDIO
    TITLE "34:cjc123_7728"
    INDEX 01 01:44:48
  TRACK 84 AUDIO
    TITLE "0:"
    INDEX 01 01:45:49
  TRACK 85 AUDIO
    TITLE "35:cjc123_7729"
    INDEX 01 01:46:29
  TRACK 86 AUDIO
    TITLE "0:"
    INDEX 01 01:50:56
  TRACK 87 AUDIO
    TITLE "33:cjc123_7730"
    INDEX 01 01:51:52
  TRACK 88 AUDIO
    TITLE "0:"
    INDEX 01 01:52:69
  TRACK 89 AUDIO
    TITLE "34:cjc123_7731"
    INDEX 01 01:53:21
  TRACK 90 AUDIO
    TITLE "0:"
    INDEX 01 01:54:29
  TRACK 91 AUDIO
    TITLE "35:cjc123_7732"
    INDEX 01 01:55:13
  TRACK 92 AUDIO
    TITLE "0:"
    INDEX 01 01:59:01
